<svg xmlns="http://www.w3.org/2000/svg" width="510.51" height="160.71" viewBox="0 0 510.51 160.71"><defs><style>.a{fill:#0082ae;}.b{fill:#52c2ef;}.c{fill:#004e67;}.d{fill:#fff;}</style></defs><title>animatic_logo</title><path class="a" d="M645.78,366.21l70.47-41.36,16.85,10.21,17.36-9.7,71,40.85s-29.62-17.36-88.34-17.36S645.78,366.21,645.78,366.21Z" transform="translate(-640.2 -205.5)"/><path class="b" d="M826.08,357.63,755,317.28l.42-19.7L738.36,287.4l-.11-81.9s-.23,34.33,29.14,85.19S826.08,357.63,826.08,357.63Z" transform="translate(-640.2 -205.5)"/><path class="c" d="M728,206l.59,81.71-17.27,9.49-.28,19.89-70.87,41s29.85-17,59.21-67.83S728,206,728,206Z" transform="translate(-640.2 -205.5)"/><path class="a" d="M946.54,299.25a9.84,9.84,0,0,0,.09,1.14q.09,1.19.09,1.52v12.88h-5.93V295.71h5.93l19,12.37,17.45-12.37h6.68v19.07h-6.68V301.91a8.38,8.38,0,0,1,.11-1.36,7.39,7.39,0,0,1,.33-1.27,12.62,12.62,0,0,1-1.27,1.59,6.4,6.4,0,0,1-1.23,1l-14.68,9.87h-1.89L949.31,302a9.49,9.49,0,0,1-1.49-1.19A8.91,8.91,0,0,1,946.54,299.25Z" transform="translate(-640.2 -205.5)"/><path class="a" d="M995.61,314.79V295.71h37.26v2.83H1002.6v4.9h18.24v2.83H1002.6V312h30.61v2.79Z" transform="translate(-640.2 -205.5)"/><path class="a" d="M1060,295.71q5.29,0,8.89.36a29.9,29.9,0,0,1,5.95,1.11,14.66,14.66,0,0,1,5.92,3.35,6.47,6.47,0,0,1,2.13,4.67q0,4.81-5.67,7.2T1060,314.79h-21.31V295.71Zm-.77,2.83h-13.55v13.36h13.55q9,0,12.85-1.57t3.82-5.17q0-3.52-3.86-5.06T1059.27,298.55Z" transform="translate(-640.2 -205.5)"/><path class="a" d="M1094.19,314.79H1087v-19h7.16Z" transform="translate(-640.2 -205.5)"/><path class="a" d="M1096.44,314.79l22.06-19.07h6.59l22.59,19.07h-7.82l-5-4.46h-26.37l-4.88,4.46Zm15.12-7.21h20.26l-10.15-9.07Z" transform="translate(-640.2 -205.5)"/><path class="c" d="M807,294.79l26.28-46.45h10.41l26.63,46.45H858.15l-5.58-10.15H823.13l-5.41,10.15Zm20.79-18.54h20.35l-10-18.9Z" transform="translate(-640.2 -205.5)"/><path class="c" d="M871,289.79V251.73h6.37L909.71,277V251.73h8.39v38.06h-6.42l-32.21-25.66v25.66Z" transform="translate(-640.2 -205.5)"/><path class="c" d="M924.31,289.79V251.73h9.23v38.06Z" transform="translate(-640.2 -205.5)"/><path class="c" d="M939.7,289.79V251.73h7.43l18.63,22.59,18.54-22.59h7.47v38.06h-8.61V263.6l-17,21.62h-1.8l-17.23-21v25.58Z" transform="translate(-640.2 -205.5)"/><path class="c" d="M993.94,289.79l22.59-38.06h8.92l22.94,38.06H1038l-4.79-8.35H1008l-4.79,8.35Zm18-15.29h17.45l-8.88-15.86Z" transform="translate(-640.2 -205.5)"/><path class="c" d="M1064.35,258.54v31.25h-9.27V258.54h-18.37v-6.81h46.05v6.81Z" transform="translate(-640.2 -205.5)"/><path class="c" d="M1085.94,289.79V251.73h9.23v38.06Z" transform="translate(-640.2 -205.5)"/><path class="c" d="M1134.69,258.72h-25v23.77h25v-8.09l9.36,1.89v4.48q0,5.19-2.07,7.1t-7.91,1.91H1110.3q-5.76,0-7.82-1.89t-2.07-7.12V260.7q0-5.18,2-7.08t7.84-1.89h23.77q5.89,0,7.93,1.89t2,7.08v3.69l-9.36,1.36Z" transform="translate(-640.2 -205.5)"/><path class="d" d="M827,325.6h-13.6v7.85H827v-2.72l3.28.38v1.28a2.12,2.12,0,0,1-.95,2,8.27,8.27,0,0,1-3.62.53h-11a8.34,8.34,0,0,1-3.64-.54,2.11,2.11,0,0,1-1-2v-5.71a2.11,2.11,0,0,1,1-2,8.33,8.33,0,0,1,3.64-.54h11a8.27,8.27,0,0,1,3.62.53,2.12,2.12,0,0,1,.95,2v1L827,328Z" transform="translate(-640.2 -205.5)"/><path class="d" d="M832.39,334v-8.9h13a6,6,0,0,1,2.59.41,1.37,1.37,0,0,1,.79,1.32v2a1.35,1.35,0,0,1-.79,1.3,6.11,6.11,0,0,1-2.59.4h-2.13l7.11,3.49h-4.06l-6.42-3.49h-4.4V334Zm11.62-7.6h-8.57v2.87H844a3.38,3.38,0,0,0,1.37-.19.73.73,0,0,0,.35-.72v-1.07a.73.73,0,0,0-.37-.7A3.09,3.09,0,0,0,844,326.36Z" transform="translate(-640.2 -205.5)"/><path class="d" d="M852,334v-8.9h16.22v1.32H855.07v2.29H863V330h-7.94v2.67H868.4V334Z" transform="translate(-640.2 -205.5)"/><path class="d" d="M868.59,334l9.32-8.9h2.78l9.54,8.9h-3.3l-2.1-2.08H873.7L871.63,334ZM875,330.6h8.56l-4.29-4.23Z" transform="translate(-640.2 -205.5)"/><path class="d" d="M895.35,326.38V334h-3v-7.58h-7.61v-1.32H903v1.32Z" transform="translate(-640.2 -205.5)"/><path class="d" d="M906.86,334h-3v-8.88h3Z" transform="translate(-640.2 -205.5)"/><path class="d" d="M917,334l-9.28-8.9H911l7.22,7.16,6.92-7.16h3L919.3,334Z" transform="translate(-640.2 -205.5)"/><path class="d" d="M929,334v-8.9h16.22v1.32H932.08v2.29H940V330h-7.94v2.67H945.4V334Z" transform="translate(-640.2 -205.5)"/><path class="d" d="M959.39,335V324.12h18.89v1.46H962.68v3h9.54V330h-9.54v3.45h15.76V335Z" transform="translate(-640.2 -205.5)"/><path class="d" d="M978.76,334l8.09-4.55-8.22-4.35h4.12l5.81,3.23,5.33-3.23h3.75l-7.41,4.13,9.06,4.77H995l-6.5-3.61L982.67,334Z" transform="translate(-640.2 -205.5)"/><path class="d" d="M1014,326.38h-11.25v6.23H1014V330.5l3,.32v1a1.71,1.71,0,0,1-.83,1.66,7.45,7.45,0,0,1-3.13.44h-9.47a7.56,7.56,0,0,1-3.11-.43,1.71,1.71,0,0,1-.81-1.68v-4.69a1.72,1.72,0,0,1,.82-1.68,7.43,7.43,0,0,1,3.1-.44h9.47a7.38,7.38,0,0,1,3.13.45,1.72,1.72,0,0,1,.83,1.67V328l-3,.28Z" transform="translate(-640.2 -205.5)"/><path class="d" d="M1019.88,334v-8.9h16.22v1.32h-13.18v2.29h7.94V330h-7.94v2.67h13.33V334Z" transform="translate(-640.2 -205.5)"/><path class="d" d="M1038.32,334v-8.9h3v7.56h12.53V334Z" transform="translate(-640.2 -205.5)"/><path class="d" d="M1055,334v-8.9h3v7.56h12.53V334Z" transform="translate(-640.2 -205.5)"/><path class="d" d="M1071.71,334v-8.9h16.22v1.32h-13.18v2.29h7.94V330h-7.94v2.67h13.33V334Z" transform="translate(-640.2 -205.5)"/><path class="d" d="M1092.72,326.84a5.8,5.8,0,0,1,.22,1.59V334h-2.8v-8.9h2.32l11.82,5.81a9.7,9.7,0,0,1,1,.54,9.32,9.32,0,0,1,.94.68,5.31,5.31,0,0,1-.26-1.66v-5.37h2.8V334h-2.08l-12.06-5.9q-.63-.33-1.09-.62A6.82,6.82,0,0,1,1092.72,326.84Z" transform="translate(-640.2 -205.5)"/><path class="d" d="M1125.71,326.38h-11.25v6.23h11.25V330.5l3,.32v1a1.71,1.71,0,0,1-.83,1.66,7.45,7.45,0,0,1-3.13.44h-9.47a7.56,7.56,0,0,1-3.11-.43,1.71,1.71,0,0,1-.81-1.68v-4.69a1.72,1.72,0,0,1,.82-1.68,7.43,7.43,0,0,1,3.1-.44h9.47a7.38,7.38,0,0,1,3.13.45,1.72,1.72,0,0,1,.83,1.67V328l-3,.28Z" transform="translate(-640.2 -205.5)"/><path class="d" d="M1131.58,334v-8.9h16.22v1.32h-13.18v2.29h7.94V330h-7.94v2.67H1148V334Z" transform="translate(-640.2 -205.5)"/><path class="d" d="M1150.33,332.57h.16a.19.19,0,0,1,.17.07.49.49,0,0,1,0,.26v.73a.46.46,0,0,1-.05.27s-.14.06-.33.06h-.8a.19.19,0,0,1-.17-.07.5.5,0,0,1,0-.26v-.73a.46.46,0,0,1,.05-.27s.14-.06.33-.06Z" transform="translate(-640.2 -205.5)"/><path class="d" d="M1145.74,337.93a.57.57,0,0,0,0,.13.36.36,0,0,0,.08.15.45.45,0,0,0,.17.11.75.75,0,0,0,.3,0,.93.93,0,0,0,.39-.07.36.36,0,0,0,.13-.11.31.31,0,0,0,0-.17.24.24,0,0,0-.14-.22l-.15-.06-.2,0-.29-.07-.16,0-.16,0-.14-.06-.13-.07a.59.59,0,0,1-.19-.22.75.75,0,0,1-.08-.36.92.92,0,0,1,0-.26.71.71,0,0,1,.15-.27.82.82,0,0,1,.32-.22,1.42,1.42,0,0,1,.53-.08,1.45,1.45,0,0,1,.52.09.82.82,0,0,1,.32.23.74.74,0,0,1,.17.28.81.81,0,0,1,0,.28h-.54a1,1,0,0,0,0-.12.31.31,0,0,0-.08-.13.41.41,0,0,0-.16-.12.91.91,0,0,0-.3,0,.74.74,0,0,0-.31.07.26.26,0,0,0-.16.26.22.22,0,0,0,.1.21.57.57,0,0,0,.19.08l.66.16.27.08a.79.79,0,0,1,.22.13.52.52,0,0,1,.16.2.75.75,0,0,1,.06.31.84.84,0,0,1-.13.48.86.86,0,0,1-.31.27,1.32,1.32,0,0,1-.36.11l-.27,0a1.64,1.64,0,0,1-.6-.1.87.87,0,0,1-.35-.23.82.82,0,0,1-.17-.3.84.84,0,0,1,0-.28Z" transform="translate(-640.2 -205.5)"/><path class="d" d="M1150.54,338.77H1150v-2.26h0l-.51,2.26h-.55l-.49-2.26h0v2.26h-.53v-2.7h.83l.49,2.13h0l.48-2.13h.82Z" transform="translate(-640.2 -205.5)"/></svg>